<?xml version="1.0" encoding="utf-8"?>
<!-- Generator: Adobe Illustrator 20.0.0, SVG Export Plug-In . SVG Version: 6.00 Build 0)  -->
<svg version="1.1" id="Capa_1" xmlns="http://www.w3.org/2000/svg" xmlns:xlink="http://www.w3.org/1999/xlink" x="0px" y="0px"
	 viewBox="0 0 32 32" style="enable-background:new 0 0 32 32;" xml:space="preserve">
<style type="text/css">
	.st0{fill:#FFFFFF;}
	.st1{fill:#F6F7F9;}
	.st2{fill:#E84256;}
	.st3{fill:#333333;}
	.st4{fill:none;}
	.st5{fill:none;stroke:#9798A0;stroke-miterlimit:10;}
	.st6{fill:#9798A0;}
	.st7{fill:none;stroke:#9798A0;stroke-width:2;stroke-miterlimit:10;}
	.st8{fill:none;stroke:#000000;stroke-miterlimit:10;}
	.st9{fill:#9798A0;stroke:#FFFFFF;stroke-miterlimit:10;}
	.st10{fill:#FFFFFF;stroke:#333333;stroke-miterlimit:10;}
	.st11{fill:#FFFFFF;stroke:#FFFFFF;stroke-miterlimit:10;}
	.st12{fill:none;stroke:#E6E6E6;stroke-miterlimit:10;}
	.st13{fill:none;stroke:#E2E2E2;stroke-miterlimit:10;}
	.st14{fill:#81C5F6;}
	.st15{fill:#F2F2F2;}
	.st16{fill:#777777;stroke:#F2F2F2;stroke-miterlimit:10;}
	.st17{fill:#777777;stroke:#777777;stroke-miterlimit:10;}
	.st18{fill:#777777;}
	.st19{fill:#66DDB3;}
	.st20{fill:#F4D271;}
	.st21{fill:#8876F8;}
	.st22{fill:#E64256;}
	.st23{fill:#4D4D4D;}
	.st24{fill:none;stroke:#F2F2F2;stroke-miterlimit:10;}
	.st25{fill:none;stroke:#E84256;stroke-width:2;stroke-linecap:round;stroke-linejoin:round;}
	.st26{fill:none;stroke:#4D4D4D;stroke-miterlimit:10;}
	.st27{fill:#4E4E50;stroke:#4E4E50;stroke-miterlimit:10;}
	.st28{fill:#4E4E50;}
	.st29{opacity:0.84;}
	.st30{fill:#D6B863;}
	.st31{opacity:0.2;fill:#292A2B;}
	.st32{opacity:0.5;fill:#D6B863;}
	.st33{opacity:0.5;}
	.st34{fill:none;stroke:#292A2B;stroke-width:6.2843;stroke-miterlimit:10;}
	.st35{fill:none;stroke:#D6B863;stroke-width:6.2843;stroke-linecap:round;stroke-miterlimit:10;}
	.st36{fill:none;stroke:#FFFFFF;stroke-width:6.2843;stroke-linecap:round;stroke-miterlimit:10;}
	.st37{fill:#E84256;stroke:#292A2B;stroke-width:6.2843;stroke-miterlimit:10;}
	.st38{opacity:0.34;}
	.st39{clip-path:url(#SVGID_2_);}
	.st40{fill:#EEAEB3;}
	.st41{fill:none;stroke:#B83350;stroke-width:2;stroke-linecap:round;stroke-linejoin:round;stroke-miterlimit:10;}
	.st42{fill:#B83350;}
	.st43{fill:none;stroke:#FFFFFF;stroke-width:2;stroke-linecap:round;stroke-linejoin:round;stroke-miterlimit:10;}
	.st44{font-family:'Akrobat-ExtraBold';}
	.st45{font-size:12.3463px;}
</style>
<g>
	<g>
		<g>
			<path class="st2" d="M25.4,18.9c-0.7-3-2.4-5.8-4-8.4c-1.7-2.8-3.5-5.5-5.4-8.2c-1.9,2.7-3.7,5.4-5.4,8.2c-1.6,2.6-3.3,5.4-4,8.4
				c-1.3,5.8,3.8,10.7,9.4,10.7S26.7,24.7,25.4,18.9z"/>
			<path class="st3" d="M16,3.4c1.8,2.6,3.6,5.2,5.2,7.9c1.5,2.5,3.2,5.2,3.8,8.1c1.2,5.6-3.7,10.3-9,10.3S5.7,24.9,7,19.3
				c0.6-2.8,2.3-5.6,3.8-8.1C12.4,8.6,14.2,6,16,3.4 M16,1l-1.1,1.6c-2.2,3.1-3.9,5.6-5.3,7.9l-0.1,0.2C7.9,13.2,6.2,16,5.6,19
				c-0.6,2.8,0,5.6,1.9,7.9c2,2.5,5.2,4.1,8.6,4.1s6.5-1.5,8.6-4.1c1.8-2.3,2.5-5.1,1.9-7.9c-0.7-3-2.4-5.8-3.9-8.3l-0.1-0.2
				c-1.4-2.4-3.1-4.9-5.3-7.9L16,1L16,1z"/>
		</g>
	</g>
	<text transform="matrix(1 0 0 1 10.8895 23.276)" class="st3 st44 st45">B-</text>
</g>
</svg>
