<?xml version="1.0" encoding="utf-8"?>
<!-- Generator: Adobe Illustrator 20.0.0, SVG Export Plug-In . SVG Version: 6.00 Build 0)  -->
<svg version="1.1" id="Capa_1" xmlns="http://www.w3.org/2000/svg" xmlns:xlink="http://www.w3.org/1999/xlink" x="0px" y="0px"
	 viewBox="0 0 1024 1024" style="enable-background:new 0 0 1024 1024;" xml:space="preserve">
<style type="text/css">
	.st0{fill:#FCFCFC;}
	.st1{fill:#E64256;}
	.st2{fill:#FFFFFF;}
	.st3{fill:#333333;}
	.st4{fill:#80C3F4;}
	.st5{fill:#66DBB1;}
	.st6{fill:none;}
	.st7{fill:#777777;}
	.st8{fill:#F2D071;}
	.st9{fill:#8676F6;}
	.st10{clip-path:url(#SVGID_2_);}
	.st11{fill:#E84256;}
	.st12{fill-rule:evenodd;clip-rule:evenodd;fill:url(#SVGID_5_);}
	.st13{fill-rule:evenodd;clip-rule:evenodd;fill:url(#SVGID_6_);}
	.st14{fill-rule:evenodd;clip-rule:evenodd;fill:url(#SVGID_7_);}
	.st15{fill-rule:evenodd;clip-rule:evenodd;fill:url(#SVGID_8_);}
	.st16{fill-rule:evenodd;clip-rule:evenodd;fill:#FFFFFF;}
</style>
<g>
	<path class="st7" d="M867.3,615.1C844.7,513.3,786.9,417.9,736,333.7l-4.5-7.4c-48.6-80.4-105.9-166.3-180.4-270.5L512,1
		l-39.1,54.7c-74.5,104.2-131.8,190.1-180.4,270.5l-4.5,7.4c-50.9,84.2-108.6,179.6-131.2,281.4c-21.3,95.9,1.4,191.6,63.9,269.4
		C290.2,971.2,399.1,1023,512,1023s221.8-51.8,291.4-138.5C865.9,806.6,888.5,710.9,867.3,615.1z"/>
	<g>
		<g>
			<path class="st2" d="M517.4,576.3h-54.7V633h-35.2v-56.6h-54.7v-35.2h54.7v-54.7h35.2v54.7h54.7V576.3z"/>
			<path class="st2" d="M556.4,543.1h93.7v33.2h-93.7V543.1z"/>
		</g>
		<path class="st2" d="M467.7,722.8c-0.4,3.9-0.7,2.5-0.7,5c0,24.8,20.1,43.8,45,43.8c24.8,0,45-18.4,45-43.2c0-2.5-0.3-1.7-0.7-5.6
			H467.7z"/>
	</g>
</g>
</svg>
