<?xml version="1.0" encoding="utf-8"?>
<!-- Generator: Adobe Illustrator 20.0.0, SVG Export Plug-In . SVG Version: 6.00 Build 0)  -->
<svg version="1.1" id="Capa_1" xmlns="http://www.w3.org/2000/svg" xmlns:xlink="http://www.w3.org/1999/xlink" x="0px" y="0px"
	 viewBox="0 0 1024 1024" style="enable-background:new 0 0 1024 1024;" xml:space="preserve">
<style type="text/css">
	.st0{fill:#FFFFFF;}
	.st1{fill:#F6F7F9;}
	.st2{fill:#E84256;}
	.st3{fill:#333333;}
	.st4{fill:none;}
	.st5{fill:none;stroke:#9798A0;stroke-miterlimit:10;}
	.st6{fill:#9798A0;}
	.st7{fill:none;stroke:#9798A0;stroke-width:2;stroke-miterlimit:10;}
	.st8{fill:none;stroke:#000000;stroke-miterlimit:10;}
	.st9{fill:#FFFFFF;stroke:#333333;stroke-miterlimit:10;}
	.st10{fill:#FFFFFF;stroke:#FFFFFF;stroke-miterlimit:10;}
	.st11{fill:#9798A0;stroke:#FFFFFF;stroke-miterlimit:10;}
	.st12{fill:none;stroke:#E2E2E2;stroke-miterlimit:10;}
	.st13{fill:#81C5F6;}
	.st14{fill:#66DDB3;}
	.st15{fill:#7EC0F8;}
	.st16{fill:#F4D271;}
	.st17{fill:#8876F8;}
</style>
<g>
	<g>
		<g>
			<g>
				<path class="st2" d="M701.3,363.2c-13.2-59.5-48.6-116.8-79.8-168.5C587.4,138.3,550.2,84,512,30.4
					C473.7,84,436.5,138.3,402.4,194.7c-31.2,51.7-66.6,109-79.8,168.5c-26,117,76.5,214.6,189.3,214.6S727.3,480.2,701.3,363.2z"/>
				<path class="st3" d="M512,50.9c36.8,51.5,72.7,103.9,105.4,158.1c30.1,49.7,64.1,104.9,76.8,162.2
					c25,112.6-73.6,206.5-182.2,206.5s-207.2-93.9-182.2-206.5c12.7-57.3,46.7-112.4,76.8-162.2C439.3,154.7,475.1,102.4,512,50.9
					 M512,2l-23.1,32.3c-44,61.6-77.9,112.4-106.6,159.9l-2.7,4.4C349.5,248.4,315.4,304.8,302,365c-12.6,56.7,0.8,113.2,37.7,159.2
					c41.1,51.3,105.5,81.9,172.2,81.9s131.1-30.6,172.2-81.9c36.9-46,50.3-102.6,37.7-159.2c-13.4-60.2-47.5-116.6-77.6-166.3
					l-2.7-4.4C613,146.7,579.1,95.9,535.1,34.3L512,2L512,2z"/>
			</g>
			<g>
				<g>
					<path class="st3" d="M515.1,342.1h-32.3v33.5H462v-33.5h-32.3v-20.8H462V289h20.8v32.3h32.3V342.1z"/>
					<path class="st3" d="M538.2,322.4h55.4v19.6h-55.4V322.4z"/>
				</g>
				<path class="st3" d="M485.8,428.6c-0.2,2.3-0.4,1.5-0.4,3c0,14.7,11.9,25.9,26.6,25.9c14.7,0,26.6-10.9,26.6-25.6
					c0-1.5-0.2-1-0.4-3.3H485.8z"/>
			</g>
		</g>
		<g>
			<path class="st3" d="M13.7,806.1h26.5c0.3,13.9,8.3,23.6,25.1,23.6c14.1,0,22.1-6.8,22.1-18.1c0-29.2-71.4-19.3-71.4-68.9
				c0-24.8,18.5-40.6,46.9-40.6c30.9,0,47.2,19.7,48.3,46.3H84.8c-0.3-13.9-7.4-22-22.1-22c-12.7,0-20.4,6.4-20.4,16.6
				c0,27.6,71.7,16.8,71.7,69c0,25.6-18.2,42.6-48.3,42.6C32.7,854.6,13.9,833.8,13.7,806.1z"/>
			<path class="st3" d="M134.2,799.4v-41.9c0-35.6,19.8-55.2,51.2-55.2c31.7,0,51.5,19.6,51.5,55.2v41.9c0,35.6-19.8,55.2-51.5,55.2
				C154,854.5,134.2,834.9,134.2,799.4z M209.2,799.4v-41.9c0-20.4-8.6-29.2-23.8-29.2c-14.9,0-23.5,8.8-23.5,29.2v41.9
				c0,20.4,8.6,29.2,23.5,29.2C200.6,828.6,209.2,819.8,209.2,799.4z"/>
			<path class="st3" d="M256.3,806.1h26.5c0.3,13.9,8.3,23.6,25.1,23.6c14.1,0,22.1-6.8,22.1-18.1c0-29.2-71.4-19.3-71.4-68.9
				c0-24.8,18.5-40.6,46.9-40.6c30.9,0,47.2,19.7,48.3,46.3h-26.2c-0.3-13.9-7.4-22-22.1-22c-12.7,0-20.4,6.4-20.4,16.6
				c0,27.6,71.7,16.8,71.7,69c0,25.6-18.2,42.6-48.3,42.6C275.4,854.6,256.6,833.8,256.3,806.1z"/>
			<path class="st2" d="M547.5,760.2v91h-26.5V761c0-24.3-7-33.4-19.4-33.4c-14.6,0-24.4,12.1-24.4,33.6v89.9h-26.5V761
				c0-24.3-7.5-33.4-19.9-33.4c-14.3,0-24,12.1-24,33.6v89.9h-26.5V705.7h19.4l2.8,16.4c7.2-12.4,18.8-19.8,34.7-19.8
				c15.4,0,27,7.2,33.9,22.1c7.2-14.1,19.7-22.1,36.8-22.1C532.2,702.3,547.5,721.3,547.5,760.2z"/>
			<path class="st2" d="M574.3,664.8c0-9.9,6.9-17.1,16.8-17.1c9.9,0,17.1,7.2,17.1,17.1c0,9.4-7.2,16.8-17.1,16.8
				C581.2,681.6,574.3,674.4,574.3,664.8z M577.5,705.7h27.7v145.5h-27.7V705.7z"/>
			<path class="st3" d="M701,828.1v24.2h-10.3c-29,0-46.2-17.9-46.2-48v-74.4h-20.8v-24.2h20.8v-34.6H671v34.6h27.7v24.2H671v74.7
				c0,15.7,6.7,23.5,21.1,23.5H701z"/>
			<path class="st3" d="M720.2,664.8c0-9.9,6.9-17.1,16.8-17.1c9.9,0,17.1,7.2,17.1,17.1c0,9.4-7.2,16.8-17.1,16.8
				C727,681.6,720.2,674.4,720.2,664.8z M724.1,705.7h26.5v145.5h-26.5V705.7z"/>
			<path class="st3" d="M883.4,758.8v40c0,35.3-18.6,55.7-46.8,55.7c-10.5,0-20.2-4.1-28.3-11.6v57.9h-25.4V705.7h18.8l1.9,13.5
				c7.2-9.4,20.1-16.6,33.1-16.6C864.4,702.6,883.4,723.2,883.4,758.8z M855.7,758.8c0-21.5-8.8-31.2-23.7-31.2
				c-13.8,0-23.7,10.2-23.7,30.9v40.3c0,19,9,30.6,23.7,30.6c15.4,0,23.7-9.4,23.7-30.6V758.8z"/>
			<path class="st3" d="M907.6,799.4v-41.9c0-35.6,19.8-55.2,51.2-55.2c31.7,0,51.5,19.6,51.5,55.2v41.9c0,35.6-19.8,55.2-51.5,55.2
				C927.4,854.5,907.6,834.9,907.6,799.4z M983.8,799.4v-41.9c0-20.4-9.2-29.2-24.4-29.2c-14.9,0-24.1,8.8-24.1,29.2v41.9
				c0,20.4,9.2,29.2,24.1,29.2C974.6,828.6,983.8,819.8,983.8,799.4z"/>
		</g>
	</g>
	<g>
		<path class="st3" d="M51.1,940v61.2h-4.7l-1.1-7.9v-1c-2.3,6.3-8.3,10.2-15.9,10.2c-9.6,0-15.3-6.9-15.3-22.7V940h4.6v39
			c0,12.6,3.7,18.6,11.7,18.6c8.9,0,14.9-7.8,14.9-20.2V940H51.1z"/>
		<path class="st3" d="M104.2,962v39.2h-4.6v-38.5c0-12.6-4.2-18.6-12.2-18.6c-8.9,0-15.5,7.8-15.5,20.2v37h-4.6V940h4l0.7,8.4v1
			c3.5-6.3,8.9-10.2,16.4-10.2C97.9,939.3,104.2,946.3,104.2,962z"/>
		<path class="st3" d="M153.8,958.4v42.8h-4l-0.5-6.5c-2.7,4.5-7.6,7.7-14.9,7.7c-10.7,0-18.1-6.5-18.1-18.2
			c0-11.3,7.3-17.6,20.4-17.6h12.5v-8.1c0-9.3-4.5-14.3-12.7-14.3c-7.8,0-12.9,5-13.2,11.9h-5.1c0.6-10.4,7.3-16.7,18.2-16.7
			C147.4,939.5,153.8,946.5,153.8,958.4z M149.2,983.6v-12.3h-12.6c-10,0-15.2,4.6-15.2,13.1c0,8.7,5.4,13.3,13.6,13.3
			C144.2,997.7,149.2,992.1,149.2,983.6z"/>
		<path class="st3" d="M233.5,958.4v42.8h-4.5l-0.5-6.5c-2.7,4.5-7.6,7.7-14.9,7.7c-10.7,0-18.1-6.5-18.1-18.2
			c0-11.3,7.3-17.6,20.4-17.6h13v-8.1c0-9.3-4.8-14.3-13-14.3c-7.8,0-13.2,5-13.5,11.9h-5.1c0.6-10.4,7.6-16.7,18.5-16.7
			C226.8,939.5,233.5,946.5,233.5,958.4z M228.9,983.6v-12.3h-13.1c-10,0-15.2,4.6-15.2,13.1c0,8.7,5.7,13.3,13.9,13.3
			C223.5,997.7,228.9,992.1,228.9,983.6z"/>
		<path class="st3" d="M287.7,960.7v20.6c0,13.3-7.6,21.1-18.5,21.1c-5.8,0-11.5-2.8-15-7.9v27.4h-4.6v-82h4.1l0.6,7.6
			c3-5.4,8.8-8.4,15.4-8.4C279.9,939.2,287.7,947.1,287.7,960.7z M282,960.7c0-11.1-5.5-16.8-13.8-16.8c-7.4,0-13.9,5.9-13.9,17.5
			v20.4c0,9.1,5.6,16,13.6,16c8.8,0,14.1-5.7,14.1-16.4V960.7z"/>
		<path class="st3" d="M339.7,960.7v20.6c0,13.3-7,21.1-17.9,21.1c-5.8,0-12.1-2.8-14.4-7.9v27.4h-5.8v-82h4.6l0.6,7.6
			c3-5.4,8.5-8.4,15.1-8.4C332.1,939.2,339.7,947.1,339.7,960.7z M335.1,960.7c0-11.1-5.5-16.8-13.8-16.8c-7.4,0-13.9,5.9-13.9,17.5
			v20.4c0,9.1,5.6,16,13.6,16c8.8,0,14.1-5.7,14.1-16.4V960.7z"/>
		<path class="st3" d="M418.2,940v82h-4.6v-27.4c-3.5,5.1-8.6,7.9-14.4,7.9c-10.9,0-17.9-7.8-17.9-21.1v-20.6
			c0-13.7,7.5-21.4,17.7-21.4c6.6,0,12.1,2.9,15.1,8.3l0.5-7.6H418.2z M413.6,981.8v-20.4c0-11.6-6.5-17.5-13.9-17.5
			c-8.3,0-13.8,5.7-13.8,16.8v20.6c0,10.8,5.3,16.4,14.1,16.4C408,997.8,413.6,991,413.6,981.8z"/>
		<path class="st3" d="M471.3,940v61.2h-4.3l-0.3-7.9v-1c-3.5,6.3-8.9,10.2-16.4,10.2c-9.6,0-15.9-6.9-15.9-22.7V940h4.6v39
			c0,12.6,4.2,18.6,12.2,18.6c8.9,0,15.5-7.8,15.5-20.2V940H471.3z"/>
		<path class="st3" d="M524.7,982.8c-1,12.7-7.7,19.5-20,19.5c-11.5,0-18.5-7.6-18.5-20.4v-22c0-12.9,6.8-20.5,18.3-20.5
			c11.6,0,18.6,7.6,18.6,20.5v13.7h-32.3v8.3c0,10.1,5.2,15.5,13.8,15.5c9.4,0,14-5.4,14.9-14.6H524.7z M490.9,959.8v9.1h27.7v-9.1
			c0-10.1-5.2-15.6-14-15.6C496,944.2,490.9,949.7,490.9,959.8z"/>
		<path class="st3" d="M562.6,983.9h5c0.2,9.2,5.4,13.6,14.2,13.6c7.5,0,12.9-4.1,12.9-11.1c0-16.2-31.4-11.3-31.4-31.6
			c0-9.3,7.2-15.6,17.4-15.6c10.8,0,17.7,6.6,17.9,17h-5c-0.2-8.1-5-12.3-13-12.3c-7.4,0-12.3,4.2-12.3,11
			c0,15.6,31.4,10.7,31.4,31.6c0,9.5-7.6,15.8-17.9,15.8C570.3,1002.4,562.8,995.4,562.6,983.9z"/>
		<path class="st3" d="M646.7,958.4v42.8h-4l-0.5-6.5c-2.7,4.5-7.6,7.7-14.9,7.7c-10.7,0-18.1-6.5-18.1-18.2
			c0-11.3,7.3-17.6,20.4-17.6h12.5v-8.1c0-9.3-4.5-14.3-12.7-14.3c-7.8,0-13,5-13.2,11.9h-5.1c0.6-10.4,7.3-16.7,18.2-16.7
			C640.3,939.5,646.7,946.5,646.7,958.4z M642.1,983.6v-12.3h-12.6c-10,0-15.2,4.6-15.2,13.1c0,8.7,5.4,13.3,13.7,13.3
			C637,997.7,642.1,992.1,642.1,983.6z"/>
		<path class="st3" d="M664,917h4.6v84.3H664V917z"/>
		<path class="st3" d="M718.4,940l-17.3,61.2h-5.4L678.4,940h5.3l10.4,37.8c1.3,5.2,3.1,13,4.2,16.5h0.2c1.2-3.5,2.9-11.3,4.3-16.5
			l10.4-37.8H718.4z"/>
		<path class="st3" d="M763.3,958.4v42.8h-4.9l-0.5-6.5c-2.7,4.5-7.6,7.7-14.9,7.7c-10.7,0-18.1-6.5-18.1-18.2
			c0-11.3,7.3-17.6,20.4-17.6h12.2v-8.1c0-9.3-4.4-14.3-12.6-14.3c-7.8,0-12.8,5-13.1,11.9h-5.1c0.6-10.4,7.8-16.7,18.7-16.7
			C756.5,939.5,763.3,946.5,763.3,958.4z M757.5,983.6v-12.3h-12.3c-10,0-15.2,4.6-15.2,13.1c0,8.7,5.3,13.3,13.5,13.3
			C752.6,997.7,757.5,992.1,757.5,983.6z"/>
		<path class="st3" d="M840.5,940l-17.3,61.2h-5.4L800.4,940h5.3l10.4,37.8c1.3,5.2,3.1,13,4.2,16.5h0.2c1.2-3.5,2.9-11.3,4.3-16.5
			l10.4-37.8H840.5z"/>
		<path class="st3" d="M848.2,924.6c0-2.7,1.7-4.5,4.4-4.5c2.8,0,4.5,1.9,4.5,4.5c0,2.8-1.7,4.5-4.5,4.5
			C849.9,929.1,848.2,927.4,848.2,924.6z M849.9,940h5.8v61.2h-5.8V940z"/>
		<path class="st3" d="M907.6,917v84.3h-4.3l-0.6-6.4c-3.1,4.6-8.7,7.6-14.9,7.6c-10.5,0-18.3-7.8-18.3-21.4v-20.6
			c0-13.3,7.2-21.1,18.1-21.1c6.5,0,11.9,3,15.3,8.9V917H907.6z M903,981.7v-19.9c0-11.2-6.5-17.8-14.4-17.8
			c-8.8,0-14.5,5.6-14.5,16.4V981c0,11.1,6.1,16.8,14.7,16.8C896.4,997.8,903,991.9,903,981.7z"/>
		<path class="st3" d="M958.4,958.4v42.8h-4.3l-0.5-6.5c-2.7,4.5-7.6,7.7-14.9,7.7c-10.7,0-18.1-6.5-18.1-18.2
			c0-11.3,7.3-17.6,20.4-17.6h12.7v-8.1c0-9.3-4.6-14.3-12.9-14.3c-7.8,0-13.1,5-13.3,11.9h-5.1c0.6-10.4,7.5-16.7,18.3-16.7
			C951.8,939.5,958.4,946.5,958.4,958.4z M953.8,983.6v-12.3h-12.9c-10,0-15.2,4.6-15.2,13.1c0,8.7,5.6,13.3,13.8,13.3
			C948.6,997.7,953.8,992.1,953.8,983.6z"/>
		<path class="st3" d="M970.8,983.9h5c0.2,9.2,5.4,13.6,14.2,13.6c7.5,0,12.9-4.1,12.9-11.1c0-16.2-31.4-11.3-31.4-31.6
			c0-9.3,7.2-15.6,17.4-15.6c10.8,0,17.7,6.6,17.9,17h-5c-0.2-8.1-5-12.3-13-12.3c-7.4,0-12.3,4.2-12.3,11
			c0,15.6,31.4,10.7,31.4,31.6c0,9.5-7.6,15.8-17.9,15.8C978.5,1002.4,971,995.4,970.8,983.9z"/>
	</g>
</g>
</svg>
