<?xml version="1.0" encoding="utf-8"?>
<!-- Generator: Adobe Illustrator 20.0.0, SVG Export Plug-In . SVG Version: 6.00 Build 0)  -->
<svg version="1.1" id="Capa_1" xmlns="http://www.w3.org/2000/svg" xmlns:xlink="http://www.w3.org/1999/xlink" x="0px" y="0px"
	 viewBox="0 0 1000 1000" style="enable-background:new 0 0 1000 1000;" xml:space="preserve">
<style type="text/css">
	.st0{fill:#FFFFFF;}
	.st1{fill:#F6F7F9;}
	.st2{fill:#E84256;}
	.st3{fill:#333333;}
	.st4{fill:none;}
	.st5{fill:none;stroke:#9798A0;stroke-miterlimit:10;}
	.st6{fill:#9798A0;}
	.st7{fill:none;stroke:#9798A0;stroke-width:2;stroke-miterlimit:10;}
	.st8{fill:none;stroke:#000000;stroke-miterlimit:10;}
	.st9{fill:#FFFFFF;stroke:#333333;stroke-miterlimit:10;}
	.st10{fill:#FFFFFF;stroke:#FFFFFF;stroke-miterlimit:10;}
	.st11{fill:#9798A0;stroke:#FFFFFF;stroke-miterlimit:10;}
	.st12{fill:none;stroke:#E2E2E2;stroke-miterlimit:10;}
	.st13{fill:#81C5F6;}
	.st14{fill:#66DDB3;}
	.st15{fill:#777777;}
	.st16{fill:#F4D271;}
	.st17{fill:#8876F8;}
</style>
<g>
	<g>
		<path class="st2" d="M810.3,596.9c-21.6-97.6-79.6-191.4-130.8-276.2C623.7,228.5,562.7,139.3,500,51.6
			c-62.7,87.7-123.7,176.9-179.5,269.2c-51.2,84.7-109.1,178.6-130.8,276.2C147.1,788.7,315,948.6,500,948.6
			S852.9,788.7,810.3,596.9z"/>
		<path class="st3" d="M500,85.1c60.4,84.4,119.1,170.2,172.8,259.1c49.3,81.5,105,171.9,125.9,265.8
			C839.6,794.5,678,948.4,500,948.4S160.4,794.5,201.4,609.9c20.8-93.9,76.6-184.2,125.9-265.8C380.9,255.3,439.6,169.5,500,85.1
			 M500,5l-37.9,53c-72.2,100.9-127.7,184.2-174.8,262.1l-4.4,7.2c-49.3,81.5-105.2,174-127.1,272.6c-20.6,92.9,1.4,185.6,61.9,261
			c67.4,84,173,134.2,282.3,134.2s214.8-50.2,282.3-134.2c60.5-75.4,82.5-168.1,61.9-261c-21.9-98.6-77.8-191-127.1-272.6l-4.4-7.2
			C665.6,242.2,610.1,158.9,537.9,58L500,5L500,5z"/>
	</g>
	<g>
		<g>
			<path class="st3" d="M505.4,562.7h-53.1v54.5h-33.6v-54.5h-53.1v-33.6h53.1v-54.5h33.6v54.5h53.1V562.7z"/>
			<path class="st3" d="M542.8,529.8h91.5v32.1h-91.5V529.8z"/>
		</g>
		<path class="st3" d="M457.1,700.9c-0.4,4-0.6,4.1-0.6,6.6c0,24.1,19.5,43.3,43.6,43.3c24.1,0,43.6-19.1,43.6-43.1
			c0-2.4-0.3-2.7-0.6-6.7H457.1z"/>
	</g>
</g>
</svg>
