<?xml version="1.0" encoding="utf-8"?>
<!-- Generator: Adobe Illustrator 20.0.0, SVG Export Plug-In . SVG Version: 6.00 Build 0)  -->
<svg version="1.1" id="Capa_1" xmlns="http://www.w3.org/2000/svg" xmlns:xlink="http://www.w3.org/1999/xlink" x="0px" y="0px"
	 viewBox="0 0 1024 265" style="enable-background:new 0 0 1024 265;" xml:space="preserve">
<style type="text/css">
	.st0{fill:#FFFFFF;}
	.st1{fill:#F6F7F9;}
	.st2{fill:#E84256;}
	.st3{fill:#333333;}
	.st4{fill:none;}
	.st5{fill:none;stroke:#9798A0;stroke-miterlimit:10;}
	.st6{fill:#9798A0;}
	.st7{fill:none;stroke:#9798A0;stroke-width:2;stroke-miterlimit:10;}
	.st8{fill:none;stroke:#000000;stroke-miterlimit:10;}
	.st9{fill:#FFFFFF;stroke:#333333;stroke-miterlimit:10;}
	.st10{fill:#FFFFFF;stroke:#FFFFFF;stroke-miterlimit:10;}
	.st11{fill:#9798A0;stroke:#FFFFFF;stroke-miterlimit:10;}
	.st12{fill:none;stroke:#E2E2E2;stroke-miterlimit:10;}
	.st13{fill:#81C5F6;}
	.st14{fill:#66DDB3;}
	.st15{fill:#7EC0F8;}
	.st16{fill:#F4D271;}
	.st17{fill:#8876F8;}
</style>
<g>
	<g>
		<g>
			<path class="st2" d="M175.5,157.9c-5.7-25.6-20.9-50.2-34.3-72.4C126.6,61.3,110.6,38,94.2,15c-16.4,23-32.4,46.3-47,70.5
				c-13.4,22.2-28.6,46.8-34.3,72.4c-11.2,50.2,32.9,92.2,81.3,92.2S186.6,208.1,175.5,157.9z"/>
			<path class="st3" d="M94.2,23.8c15.8,22.1,31.2,44.6,45.3,67.9c12.9,21.4,27.5,45,33,69.6c10.7,48.4-31.6,88.7-78.3,88.7
				s-89-40.3-78.3-88.7c5.5-24.6,20.1-48.3,33-69.6C63,68.4,78.3,45.9,94.2,23.8 M94.2,2.8l-9.9,13.9C65.3,43.1,50.8,64.9,38.4,85.3
				l-1.1,1.9C24.4,108.6,9.7,132.8,4,158.7C-1.4,183,4.3,207.3,20.2,227c17.7,22,45.3,35.2,74,35.2s56.3-13.1,74-35.2
				c15.9-19.8,21.6-44,16.2-68.4c-5.7-25.8-20.4-50.1-33.3-71.4l-1.1-1.9c-12.3-20.4-26.9-42.2-45.8-68.7L94.2,2.8L94.2,2.8z"/>
		</g>
		<g>
			<g>
				<path class="st3" d="M95,148.9H81.3v13.7H73v-13.7H59.3v-8.2H73V127h8.2v13.7H95V148.9z"/>
				<path class="st3" d="M105.9,140.7h24.7v8.2h-24.7V140.7z"/>
			</g>
			<path class="st3" d="M82.9,187.3c-0.1,0-0.2,0-0.2,0.6c0,6.3,5.1,10.8,11.4,10.8c6.3,0,11.4-4.2,11.4-10.5c0-0.6-0.1-0.9-0.2-0.9
				H82.9z"/>
		</g>
	</g>
	<g>
		<path class="st3" d="M210.5,162.6h21.6c0.2,11,6.7,18.7,20.4,18.7c11.5,0,18-5.8,18-15c0-23.8-58.2-15.8-58.2-56.2
			c0-20.2,15-32.4,38.2-32.4c25.2,0,38.4,16.4,39.3,38.3h-21.3c-0.2-13.7-6.1-18.6-18-18.6c-10.3,0-16.6,4.8-16.6,13.2
			c0,22.5,58.4,13.5,58.4,56c0,20.9-14.8,35.1-39.3,35.1C226,201.7,210.7,184.6,210.5,162.6z"/>
		<path class="st3" d="M308.9,156.1v-34.1c0-29,15.4-44.9,41-44.9c25.8,0,41.3,15.9,41.3,44.9v34.1c0,29-15.4,44.9-41.3,44.9
			C324.3,201,308.9,185,308.9,156.1z M369.2,156.1v-34.1c0-16.6-7-23.8-19.3-23.8c-12.1,0-19.1,7.2-19.1,23.8v34.1
			c0,16.6,7,23.8,19.1,23.8C362.3,179.9,369.2,172.7,369.2,156.1z"/>
		<path class="st3" d="M408.2,162.6h21.6c0.2,11,6.7,18.7,20.4,18.7c11.5,0,18-5.8,18-15c0-23.8-58.2-15.8-58.2-56.2
			c0-20.2,15-32.4,38.2-32.4c25.2,0,38.4,16.4,39.3,38.3h-21.3c-0.2-13.7-6.1-18.6-18-18.6c-10.3,0-16.6,4.8-16.6,13.2
			c0,22.5,58.4,13.5,58.4,56c0,20.9-14.8,35.1-39.3,35.1C423.7,201.7,408.4,184.6,408.2,162.6z"/>
		<path class="st2" d="M646.3,124.2v74.1h-21.9v-73.5c0-19.8-5.7-27.2-15.8-27.2c-11.9,0-19.8,9.9-19.8,27.4v73.2h-21.9v-73.5
			c0-19.8-6-27.2-16.1-27.2c-11.7,0-19.5,9.9-19.5,27.4v73.2h-21.9V80.4h15.6l2.2,13c5.8-10.1,15.3-16.3,28.3-16.3
			c12.6,0,22,5.8,27.6,17.9c5.8-11.5,16.5-18,30.4-18C633.3,77,646.3,92.5,646.3,124.2z"/>
		<path class="st2" d="M667.2,46.4c0-8.1,5.6-13.9,13.7-13.9c8.1,0,13.9,5.8,13.9,13.9c0,7.6-5.8,13.7-13.9,13.7
			C672.8,60.1,667.2,54.3,667.2,46.4z M670.9,80.4h21.9v117.9h-21.9V80.4z"/>
		<path class="st3" d="M769.7,179.1v19.2h-7.7c-23.6,0-36.2-13.7-36.2-38.2V99.6h-19.2V80.4h19.2V52.9H745v27.4h21.9v19.2H745v60.8
			c0,12.8,6.4,18.8,18.1,18.8H769.7z"/>
		<path class="st3" d="M786,46.4c0-8.1,5.6-13.9,13.7-13.9c8.1,0,13.9,5.8,13.9,13.9c0,7.6-5.8,13.7-13.9,13.7
			C791.6,60.1,786,54.3,786,46.4z M788.9,80.4h21.9v117.9h-21.9V80.4z"/>
		<path class="st3" d="M917.8,123v32.6c0,28.8-14.8,45.4-37.7,45.4c-8.5,0-17.2-3.4-22.6-9.4v47.9h-21.9V80.4h17L854,91
			c5.8-7.6,15.8-13.6,26.4-13.6C902.9,77.4,917.8,94.1,917.8,123z M895.8,123c0-17.5-7.1-25.4-19.2-25.4c-11.2,0-19.2,8.3-19.2,25.2
			v32.8c0,15.5,7.3,24.9,19.2,24.9c12.6,0,19.2-7.6,19.2-24.9V123z"/>
		<path class="st3" d="M939.7,156.1v-34.1c0-29,15.4-44.9,41-44.9c25.8,0,41.3,15.9,41.3,44.9v34.1c0,29-15.4,44.9-41.3,44.9
			C955.1,201,939.7,185,939.7,156.1z M1000.1,156.1v-34.1c0-16.6-7-23.8-19.3-23.8c-12.1,0-19.1,7.2-19.1,23.8v34.1
			c0,16.6,7,23.8,19.1,23.8C993.1,179.9,1000.1,172.7,1000.1,156.1z"/>
	</g>
</g>
</svg>
