<svg height="511pt" viewBox="-15 1 511 511.99988" width="511pt" xmlns="http://www.w3.org/2000/svg"><path d="m271.179688 40.246094c-35.753907-53.660156-115.066407-53.664063-150.851563 0-54.773437-28.113282-119.828125 11.914062-119.828125 73.136718 0 26.050782 12.160156 50.222657 32.820312 65.726563h324.648438c7.433594-4.246094 33.042969-27.585937 33.042969-65.726563 0-61.300781-65.125-101.214843-119.832031-73.136718zm0 0" fill="#fff1be"/><path d="m271.179688 40.246094c-17.570313-26.371094-45.660157-39.777344-73.929688-40.2265628v179.0898438h160.71875c7.445312-4.230469 33.042969-27.625 33.042969-65.726563 0-61.300781-65.121094-101.21875-119.832031-73.136718zm0 0" fill="#ffdf7b"/><path d="m482.25 207.101562v99.964844c0 30.320313-24.671875 54.984375-55 54.984375-70.929688 0-66.277344.210938-69-.539062v-28.910157c2.738281-.753906-1.875-.542968 69-.542968 13.789062 0 25-11.203125 25-24.992188v-99.964844c0-13.785156-11.210938-24.992187-25-24.992187h-70v-14.996094c0-4.816406-3.441406-8.867187-8-9.796875v-5.199218h78c30.328125.003906 55 24.664062 55 54.984374zm0 0" fill="#f50"/><path d="m307.25 512h-220c-30.328125 0-55-24.664062-55-54.980469v-289.90625c0-8.28125 6.714844-14.992187 15-14.992187h300c8.285156 0 15 6.710937 15 14.992187v289.90625c0 30.316407-24.671875 54.980469-55 54.980469zm0 0" fill="#ffd84b"/><path d="m347.25 152.121094h-150v359.878906h110c30.328125 0 55-24.664062 55-54.980469v-289.90625c0-8.277343-6.71875-14.992187-15-14.992187zm0 0" fill="#ffc200"/><path d="m32.25 457.019531c0 30.316407 24.671875 54.980469 55 54.980469h220c30.328125 0 55-24.664062 55-54.980469v-19.996093h-330zm0 0" fill="#ff7225"/><path d="m362.25 437.023438v19.996093c0 30.316407-24.671875 54.980469-55 54.980469h-110v-74.976562zm0 0" fill="#f50"/><path d="m362.25 227.09375v-59.980469c0-8.28125-6.714844-14.992187-15-14.992187h-300c-8.285156 0-15 6.710937-15 14.992187v59.980469zm0 0" fill="#ff7225"/><path d="m362.25 167.113281v59.980469h-165v-74.972656h150c8.28125 0 15 6.714844 15 14.992187zm0 0" fill="#f50"/><path d="m107.25 392.039062c-8.285156 0-15-6.714843-15-14.996093v-89.96875c0-8.28125 6.714844-14.996094 15-14.996094s15 6.714844 15 14.996094v89.96875c0 8.28125-6.714844 14.996093-15 14.996093zm0 0" fill="#fff1be"/><path d="m167.25 392.039062c-8.285156 0-15-6.714843-15-14.996093v-60.976563c0-8.28125 6.714844-14.996094 15-14.996094s15 6.714844 15 14.996094v60.976563c0 8.28125-6.714844 14.996093-15 14.996093zm0 0" fill="#fff1be"/><path d="m227.25 392.039062c-8.285156 0-15-6.714843-15-14.996093v-89.96875c0-8.28125 6.714844-14.996094 15-14.996094s15 6.714844 15 14.996094v89.96875c0 8.28125-6.714844 14.996093-15 14.996093zm0 0" fill="#ffdf7b"/><path d="m287.25 392.039062c-8.285156 0-15-6.714843-15-14.996093v-89.96875c0-8.28125 6.714844-14.996094 15-14.996094s15 6.714844 15 14.996094v89.96875c0 8.28125-6.714844 14.996093-15 14.996093zm0 0" fill="#ffdf7b"/><path d="m121.25 149.121094v76.972656c0 24.804688 20.191406 44.984375 45 44.984375s45-20.179687 45-44.984375v-76.972656zm0 0" fill="#fff1be"/><path d="m197.25 149.121094v109.542968c8.816406-8.382812 14-20.023437 14-32.566406v-76.976562zm0 0" fill="#ffdf7b"/></svg>