<svg height="512pt" viewBox="0 -25 512 512" width="512pt" xmlns="http://www.w3.org/2000/svg"><path d="m492.8125 379.554688c-3.316406-12.367188-2.21875-25.4375 2.730469-37.246094 5.746093-13.71875 8.921875-28.78125 8.921875-44.585938v-77.015625c0-15.25-2.953125-29.808593-8.324219-43.136719-4.816406-11.953124-5.863281-25.089843-2.527344-37.535156l5.753907-21.484375c2.894531-10.789062-6.980469-20.664062-17.769532-17.773437l-31.808594 8.523437c-9.816406 2.628907-20.183593 2.769531-29.976562.054688-9.828125-2.71875-20.179688-4.175781-30.875-4.175781h-265.875c-10.511719 0-20.695312 1.40625-30.371094 4.039062-9.738281 2.648438-20.027344 2.503906-29.777344-.109375l-31.101562-8.332031c-10.789062-2.890625-20.664062 6.984375-17.773438 17.773437l5.320313 19.855469c3.332031 12.441406 2.210937 25.585938-2.792969 37.457031-5.816406 13.785157-9.035156 28.9375-9.035156 44.84375v77.015625c0 16.277344 3.367188 31.765625 9.441406 45.808594 5.226563 12.082031 6.433594 25.519531 3.027344 38.234375l-4.847656 18.089844c-2.890625 10.789062 6.984375 20.664062 17.773437 17.773437l30.496094-8.171875c9.699219-2.597656 19.933594-2.746093 29.632813-.144531 9.566406 2.566406 19.625 3.9375 30.003906 3.9375h265.878906c10.558594 0 20.785156-1.421875 30.503906-4.074219 9.753906-2.667969 20.066406-2.527343 29.832032.089844l31.203124 8.363281c10.789063 2.890625 20.664063-6.984375 17.773438-17.773437zm0 0" fill="#9ba2ff"/><path d="m492.8125 379.554688c-3.316406-12.367188-2.21875-25.4375 2.730469-37.246094 5.746093-13.71875 8.921875-28.78125 8.921875-44.585938v-77.015625c0-15.25-2.953125-29.808593-8.324219-43.136719-4.816406-11.953124-5.863281-25.089843-2.527344-37.535156l5.753907-21.484375c2.894531-10.789062-6.980469-20.664062-17.769532-17.773437l-31.808594 8.523437c-9.816406 2.628907-20.183593 2.769531-29.976562.054688-9.828125-2.71875-20.179688-4.175781-30.875-4.175781h-265.875c-10.511719 0-20.695312 1.40625-30.371094 4.039062-9.738281 2.648438-20.027344 2.503906-29.777344-.109375l-31.101562-8.332031c-10.789062-2.890625-20.664062 6.984375-17.773438 17.773437l5.320313 19.855469c3.332031 12.441406 2.210937 25.585938-2.792969 37.457031-5.816406 13.785157-9.035156 28.9375-9.035156 44.84375v77.015625c0 16.277344 3.367188 31.765625 9.441406 45.808594 5.226563 12.082031 6.433594 25.519531 3.027344 38.234375l-4.847656 18.089844c-2.890625 10.789062 6.984375 20.664062 17.773437 17.773437l30.496094-8.171875c9.699219-2.597656 19.933594-2.746093 29.632813-.144531 9.566406 2.566406 19.625 3.9375 30.003906 3.9375h265.878906c10.558594 0 20.785156-1.421875 30.503906-4.074219 9.753906-2.667969 20.066406-2.527343 29.832032.089844l31.203124 8.363281c10.789063 2.890625 20.664063-6.984375 17.773438-17.773437zm0 0" fill="#b474ed"/><path d="m504.464844 297.722656v-77.015625c0-15.25-2.953125-29.808593-8.324219-43.136719-4.816406-11.953124-5.863281-25.089843-2.527344-37.535156l5.753907-21.484375c2.894531-10.789062-6.980469-20.664062-17.769532-17.773437l-31.808594 8.523437c-9.816406 2.628907-20.183593 2.769531-29.976562.054688-1.058594-.292969-2.125-.5625-3.195312-.828125 4.960937 12.882812 7.691406 26.875 7.691406 41.507812v77.019532c0 15.804687-3.175782 30.863281-8.925782 44.582031-4.945312 11.808593-6.042968 24.878906-2.730468 37.246093l5.441406 20.300782c2.890625 10.789062-6.984375 20.664062-17.773438 17.773437l-31.203124-8.359375c-9.765626-2.617187-20.078126-2.761718-29.832032-.09375-9.71875 2.65625-19.945312 4.078125-30.503906 4.078125h-265.878906c-9.542969 0-18.808594-1.171875-27.679688-3.355469.558594 1.449219 1.136719 2.886719 1.75 4.308594 5.226563 12.082032 6.4375 25.519532 3.03125 38.234375l-4.847656 18.085938c-2.890625 10.789062 6.980469 20.664062 17.773438 17.773437l30.496093-8.171875c9.699219-2.597656 19.933594-2.746093 29.632813-.144531 9.566406 2.570312 19.625 3.941406 30.003906 3.941406h265.875c10.5625 0 20.789062-1.421875 30.507812-4.078125 9.753907-2.667969 20.066407-2.523437 29.832032.09375l31.203125 8.359375c10.789062 2.890625 20.664062-6.984375 17.773437-17.773437l-5.441406-20.300781c-3.3125-12.367188-2.21875-25.4375 2.730469-37.246094 5.746093-13.71875 8.921875-28.78125 8.921875-44.585938zm0 0" fill="#9255d3"/><path d="m259.113281 33.90625c-16.847656-.210938-32.984375 2.726562-47.855469 8.269531-3.273437 1.21875-3.585937 5.679688-.507812 7.328125 41.578125 22.285156 69.859375 66.152344 69.859375 116.628906 0 50.472657-28.28125 94.34375-69.859375 116.628907-3.039062 1.628906-2.808594 6.09375.425781 7.300781 14.390625 5.371094 29.96875 8.304688 46.230469 8.304688 73.339844 0 132.738281-59.707032 132.234375-133.164063-.496094-71.707031-58.824219-130.390625-130.527344-131.296875zm0 0" fill="#ffdc13"/><g fill="#fa0"><path d="m210.75 49.503906c.429688.230469.847656.476563 1.269531.710938-1.027343-.941406-2.066406-1.867188-3.125-2.777344.328125.832031.9375 1.574219 1.855469 2.066406zm0 0"/><path d="m320.863281 50.214844c26.234375 24.03125 42.8125 58.441406 43.074219 96.527344.503906 73.460937-58.890625 133.167968-132.234375 133.167968-4.9375 0-9.808594-.273437-14.605469-.800781-2.082031 1.269531-4.191406 2.496094-6.347656 3.652344-3.042969 1.628906-2.808594 6.09375.425781 7.300781 14.390625 5.371094 29.96875 8.304688 46.230469 8.304688 73.339844 0 132.738281-59.707032 132.230469-133.164063-.335938-49.378906-28.101563-92.574219-68.773438-114.988281zm0 0"/><path d="m108.175781 253.691406 1.898438 7.761719c3.082031 12.585937 11.828125 21.460937 23.679687 26.703125 1.121094.746094 1.121094 2.394531 0 3.144531-11.851562 5.238281-20.597656 14.113281-23.679687 26.699219l-1.898438 7.761719c-.394531 1.597656-2.664062 1.597656-3.054687 0l-1.902344-7.761719c-3.082031-12.585938-11.828125-21.460938-23.675781-26.699219-1.121094-.75-1.121094-2.398437 0-3.144531 11.847656-5.242188 20.59375-14.117188 23.675781-26.703125l1.902344-7.761719c.390625-1.597656 2.660156-1.597656 3.054687 0zm0 0"/></g><path d="m115.804688 288.15625c-7.511719-3.320312-13.765626-8.109375-18.132813-14.367188-4.363281 6.257813-10.621094 11.042969-18.128906 14.367188-1.121094.746094-1.121094 2.394531 0 3.144531 7.507812 3.320313 13.765625 8.105469 18.128906 14.367188 4.367187-6.261719 10.621094-11.046875 18.132813-14.367188 1.121093-.75 1.121093-2.398437 0-3.144531zm0 0" fill="#ffdc13"/><path d="m434.609375 8.730469 1.902344 7.765625c3.078125 12.585937 11.824219 21.457031 23.675781 26.699218 1.121094.746094 1.121094 2.394532 0 3.144532-11.851562 5.242187-20.597656 14.113281-23.675781 26.699218l-1.902344 7.765626c-.390625 1.597656-2.664063 1.597656-3.054687 0l-1.902344-7.765626c-3.078125-12.585937-11.824219-21.457031-23.675782-26.699218-1.121093-.75-1.121093-2.398438 0-3.144532 11.851563-5.242187 20.597657-14.113281 23.675782-26.699218l1.902344-7.765625c.390624-1.597657 2.664062-1.597657 3.054687 0zm0 0" fill="#fa0"/><path d="m442.238281 43.195312c-7.507812-3.320312-13.765625-8.105468-18.128906-14.367187-4.367187 6.261719-10.621094 11.042969-18.132813 14.367187-1.121093.75-1.121093 2.398438 0 3.144532 7.511719 3.320312 13.765626 8.109375 18.132813 14.367187 4.363281-6.257812 10.621094-11.042969 18.128906-14.367187 1.121094-.746094 1.121094-2.398438 0-3.144532zm0 0" fill="#ffdc13"/><path d="m169.132812 335.472656 3.089844 12.621094c5.007813 20.453125 19.222656 34.875 38.480469 43.394531 1.824219 1.214844 1.824219 3.894531 0 5.109375-19.257813 8.519532-33.472656 22.941406-38.480469 43.394532l-3.089844 12.621093c-.636718 2.597657-4.328124 2.597657-4.960937 0l-3.089844-12.621093c-5.007812-20.453126-19.222656-34.875-38.484375-43.394532-1.820312-1.214844-1.820312-3.894531 0-5.109375 19.261719-8.519531 33.476563-22.941406 38.484375-43.394531l3.089844-12.621094c.636719-2.597656 4.328125-2.597656 4.960937 0zm0 0" fill="#fa0"/><path d="m181.535156 391.488281c-12.203125-5.398437-22.375-13.175781-29.46875-23.351562-7.09375 10.175781-17.261718 17.953125-29.464844 23.351562-1.824218 1.214844-1.824218 3.894531 0 5.109375 12.203126 5.398438 22.371094 13.175782 29.464844 23.351563 7.09375-10.175781 17.265625-17.953125 29.46875-23.351563 1.824219-1.214844 1.824219-3.894531 0-5.109375zm0 0" fill="#ffdc13"/><path d="m106.648438 334.496094c-4.210938 0-7.84375-2.851563-8.847657-6.941406l-1.898437-7.765626c-2.371094-9.683593-8.902344-16.953124-19.410156-21.601562-.390626-.171875-.769532-.378906-1.128907-.621094-2.628906-1.75-4.195312-4.679687-4.195312-7.839844 0-3.15625 1.566406-6.085937 4.195312-7.839843.359375-.238281.738281-.445313 1.128907-.621094 10.507812-4.648437 17.039062-11.914063 19.410156-21.601563l1.898437-7.765624c1.003907-4.085938 4.636719-6.941407 8.847657-6.941407 4.207031.003907 7.84375 2.855469 8.84375 6.941407l1.902343 7.765624c2.367188 9.6875 8.898438 16.953126 19.40625 21.601563.394531.175781.773438.382813 1.128907.621094 2.628906 1.75 4.199218 4.683593 4.199218 7.839843 0 3.160157-1.570312 6.089844-4.199218 7.839844-.355469.238282-.734376.449219-1.128907.621094-10.507812 4.648438-17.039062 11.917969-19.40625 21.601562l-1.902343 7.765626c-1 4.085937-4.632813 6.941406-8.84375 6.941406zm-14.515626-44.769532c6.277344 4.363282 11.160157 9.800782 14.515626 16.167969 3.351562-6.367187 8.238281-11.808593 14.515624-16.167969-6.277343-4.359374-11.164062-9.800781-14.515624-16.164062-3.355469 6.363281-8.242188 11.804688-14.515626 16.164062zm0 0"/><path d="m433.082031 89.535156h-.003906c-4.207031 0-7.84375-2.855468-8.84375-6.941406l-1.898437-7.761719c-2.371094-9.6875-8.898438-16.953125-19.40625-21.601562-.394532-.175781-.773438-.382813-1.132813-.621094-2.625-1.753906-4.195313-4.683594-4.195313-7.84375s1.570313-6.089844 4.199219-7.839844c.359375-.238281.734375-.445312 1.128907-.617187 10.507812-4.652344 17.035156-11.917969 19.40625-21.601563l1.902343-7.765625c.996094-4.085937 4.632813-6.941406 8.839844-6.941406h.003906c4.207031 0 7.84375 2.851562 8.84375 6.9375 0 .003906.003907.003906.003907.003906l1.898437 7.765625c2.371094 9.683594 8.902344 16.953125 19.40625 21.601563.394531.171875.773437.378906 1.132813.621094 2.625 1.75 4.195312 4.679687 4.195312 7.835937s-1.566406 6.089844-4.191406 7.839844c-.359375.242187-.742188.449219-1.136719.625-10.503906 4.648437-17.035156 11.917969-19.40625 21.601562l-1.898437 7.761719c-1.003907 4.089844-4.640626 6.941406-8.847657 6.941406zm-14.515625-44.769531c6.277344 4.363281 11.160156 9.800781 14.515625 16.167969 3.355469-6.367188 8.242188-11.808594 14.515625-16.167969-6.277344-4.359375-11.160156-9.796875-14.515625-16.164063-3.355469 6.367188-8.238281 11.808594-14.515625 16.164063zm8.726563-34.242187c0 .007812 0 .011718.003906.015624zm0 0"/><path d="m512 297.722656v-77.015625c0-15.882812-2.984375-31.339843-8.871094-45.949219-4.328125-10.75-5.105468-22.082031-2.238281-32.773437l5.753906-21.484375c2.066407-7.699219-.070312-15.660156-5.703125-21.296875-5.636718-5.632813-13.597656-7.769531-21.296875-5.703125l-31.804687 8.519531c-8.738282 2.34375-17.734375 2.367188-26.015625.074219-10.664063-2.953125-21.730469-4.449219-32.886719-4.449219h-9.808594c-9.582031-16.90625-22.753906-31.886719-38.359375-43.542969-3.332031-2.492187-8.050781-1.808593-10.542969 1.527344-2.492187 3.332032-1.804687 8.054688 1.527344 10.542969 31.261719 23.355469 50.085938 60.394531 50.351563 99.082031.230469 33.480469-12.632813 65-36.21875 88.75-23.585938 23.75-55.011719 36.828125-88.480469 36.828125-12.390625 0-24.554688-1.796875-36.257812-5.347656 41.515624-25.332031 66.996093-70.363281 66.996093-119.351563 0-48.992187-25.476562-94.027343-66.992187-119.355468 12.210937-3.707032 24.929687-5.503906 37.867187-5.339844 15.945313.203125 31.46875 3.410156 46.132813 9.539062 3.84375 1.609376 8.253906-.207031 9.859375-4.046874 1.601562-3.839844-.210938-8.25-4.046875-9.855469-16.457032-6.875-33.871094-10.476563-51.757813-10.703125-17.398437-.21875-34.421875 2.722656-50.582031 8.742187-4.328125 1.613281-7.210938 5.464844-7.523438 10.058594-.308593 4.589844 2.023438 8.792969 6.089844 10.972656 18.734375 10.039063 34.183594 24.414063 45.410156 41.5h-129.539062c-10.96875 0-21.851562 1.449219-32.347656 4.300781-8.253906 2.246094-17.195313 2.207032-25.851563-.113281l-31.101562-8.332031c-7.699219-2.0625-15.660157.070312-21.292969 5.703125-5.636719 5.636719-7.769531 13.597656-5.707031 21.296875l5.320312 19.855469c2.824219 10.550781 1.953125 22.117187-2.457031 32.578125-6.386719 15.140625-9.625 31.214844-9.625 47.773437 0 4.160157 3.371094 7.53125 7.535156 7.53125 4.160156 0 7.53125-3.371093 7.53125-7.53125 0-14.535156 2.839844-28.636719 8.441406-41.917969 5.710938-13.527343 6.820313-28.566406 3.128907-42.332031l-5.320313-19.859375c-.941406-3.507812.949219-5.878906 1.804688-6.738281.855468-.855469 3.226562-2.746094 6.742187-1.804687l31.101563 8.332031c11.230468 3.011719 22.886718 3.042969 33.707031.101562 9.207031-2.503906 18.757813-3.773437 28.390625-3.773437h138.015625c7.769531 16.398437 11.996094 34.582031 11.996094 53.417968 0 46.0625-25.246094 88.207032-65.882813 109.984376-4.007812 2.148437-6.402344 6.46875-6.09375 11.003906.308594 4.570312 3.160156 8.398437 7.445313 9.996094 15.613281 5.828124 32.054687 8.785156 48.863281 8.785156 37.515625 0 72.738281-14.660156 99.171875-41.28125 26.4375-26.617188 40.851563-61.945313 40.59375-99.472656-.121094-17.953126-3.792969-35.867188-10.675781-52.4375h2.441406c9.796875 0 19.507812 1.316406 28.863281 3.90625 10.871094 3.011718 22.605469 2.996093 33.9375-.042969l31.808594-8.519531c3.507813-.941407 5.882813.949218 6.738281 1.804687.855469.855469 2.746094 3.230469 1.804688 6.738281l-5.753906 21.488282c-3.71875 13.867187-2.746094 28.496093 2.816406 42.300781 5.160156 12.8125 7.78125 26.378906 7.78125 40.320312v77.015625c0 14.445313-2.808594 28.46875-8.339844 41.675782-5.640625 13.464843-6.726562 28.417968-3.058594 42.105468l5.441406 20.300782c.9375 3.511718-.953124 5.882812-1.808593 6.738281s-3.230469 2.746093-6.738281 1.808593l-31.199219-8.363281c-11.257813-3.015625-22.9375-3.042969-33.773438-.082031-9.246093 2.527344-18.84375 3.8125-28.519531 3.8125h-154.367188c-4.164062 0-7.535156 3.371094-7.535156 7.53125s3.371094 7.535156 7.535156 7.535156h154.367188c11.015625 0 21.949219-1.460937 32.492188-4.34375 8.261718-2.257812 17.21875-2.222656 25.898437.101563l31.199219 8.359375c1.933594.519531 3.882812.773437 5.808594.773437 5.742187 0 11.265624-2.253906 15.488281-6.476562 5.636719-5.636719 7.769531-13.597657 5.707031-21.296875l-5.441406-20.296875c-2.808594-10.484375-1.953125-21.984375 2.402344-32.386719 6.308593-15.058594 9.507812-31.039062 9.507812-47.496094zm0 0"/><path d="m214.882812 385.21875c-.355468-.238281-.734374-.445312-1.128906-.621094-12.707031-5.621094-28.957031-16.832031-34.210937-38.296875l-3.089844-12.617187c-1.109375-4.53125-5.136719-7.691406-9.800781-7.691406-4.660156 0-8.691406 3.160156-9.800782 7.691406l-3.085937 12.617187c-5.253906 21.46875-21.507813 32.675781-34.214844 38.296875-.390625.175782-.769531.382813-1.128906.621094-2.957031 1.972656-4.722656 5.269531-4.722656 8.824219 0 3.554687 1.765625 6.851562 4.722656 8.824219.359375.238281.738281.445312 1.132813.621093 1.496093.660157 3.039062 1.402344 4.609374 2.226563h-1.101562c-9.507812 0-18.949219-1.238282-28.050781-3.683594-10.785157-2.890625-22.378907-2.84375-33.535157.148438l-30.496093 8.167968c-3.507813.9375-5.882813-.949218-6.738281-1.804687-.855469-.855469-2.75-3.226563-1.808594-6.738281l4.847656-18.085938c3.769531-14.070312 2.566406-29.402344-3.390625-43.175781-5.851563-13.535157-8.820313-27.941407-8.820313-42.820313v-43.914062c0-4.164063-3.371093-7.535156-7.535156-7.535156-4.160156 0-7.535156 3.375-7.535156 7.535156v43.914062c0 16.949219 3.386719 33.367188 10.058594 48.800782 4.613281 10.667968 5.558594 22.492187 2.667968 33.292968l-4.847656 18.085938c-2.0625 7.699218.070313 15.660156 5.707032 21.296875 4.21875 4.21875 9.746093 6.476562 15.488281 6.476562 1.921875 0 3.871093-.253906 5.804687-.773437l30.496094-8.167969c8.601562-2.304687 17.496094-2.355469 25.730469-.148437 10.375 2.785156 21.125 4.199218 31.957031 4.199218h20.152344c4.640625 5.578125 8.464844 12.480469 10.546875 21l3.089843 12.617188c1.109376 4.53125 5.140626 7.691406 9.800782 7.691406 4.664062 0 8.691406-3.160156 9.800781-7.691406l3.089844-12.617188c5.253906-21.46875 21.503906-32.675781 34.210937-38.296875.394532-.175781.773438-.382812 1.128906-.621093 2.960938-1.972657 4.726563-5.269532 4.726563-8.824219 0-3.554688-1.765625-6.851563-4.726563-8.824219zm-48.230468 47c-2.984375-8.753906-7.640625-16.59375-13.820313-23.398438-.375-.511718-.808593-.980468-1.296875-1.386718-4.894531-5.097656-10.667968-9.585938-17.300781-13.390625 15.890625-9.113281 26.945313-22.113281 32.417969-38.171875 5.476562 16.054687 16.53125 29.0625 32.417968 38.171875-15.890624 9.113281-26.941406 22.117187-32.417968 38.175781zm0 0"/></svg>